<?xml version="1.0" encoding="utf-8"?>
<!-- Generator: Adobe Illustrator 21.1.0, SVG Export Plug-In . SVG Version: 6.00 Build 0)  -->
<svg version="1.1" id="Layer_1" xmlns="http://www.w3.org/2000/svg" xmlns:xlink="http://www.w3.org/1999/xlink" x="0px" y="0px"
	 viewBox="0 0 512 512" style="enable-background:new 0 0 512 512;" xml:space="preserve">
<style type="text/css">
	.st0{fill:#D1EEFF;}
	.st1{fill:#1AA8FF;}
</style>
<path class="st0" d="M412.5,56H293.2c-13.8,0-27.1,5.5-36.9,15.3L17.7,309.9c-6.8,6.8-6.8,17.8,0,24.6l159.9,159.9
	c6.8,6.8,17.8,6.8,24.6,0l238.6-238.6c9.8-9.8,15.3-23.1,15.3-36.9V99.5C456,75.5,436.5,56,412.5,56z M404.9,144
	c-10.2,10.2-26.7,10.2-36.9,0c-10.2-10.2-10.2-26.7,0-36.9s26.7-10.2,36.9,0C415.1,117.3,415.1,133.8,404.9,144z"/>
<g>
	<polygon class="st1" points="473.3,0 473.3,0 473.3,0 	"/>
	<polygon class="st1" points="375.2,131.2 375.2,131.2 375.2,131.2 	"/>
	<polygon class="st1" points="380.8,114.3 380.8,114.3 380.8,114.3 	"/>
</g>
<g>
	<path class="st1" d="M247.3,166.5c-3.3,0-6.4,1.4-8.5,3.5c-2.2,2.2-3.5,5.2-3.5,8.5v172.2c0,3.3,1.4,6.4,3.5,8.5
		c2.2,2.2,5.2,3.5,8.5,3.5c3.3,0,6.4-1.4,8.5-3.5c2.2-2.2,3.5-5.2,3.5-8.5V178.6c0-3.3-1.4-6.4-3.5-8.5
		C253.7,167.9,250.6,166.5,247.3,166.5z"/>
	<path class="st1" d="M185.8,226.5c-9.8,0-19.5,3.7-27,11.2l0,0c-7.4,7.4-11.2,17.2-11.2,27c0,9.8,3.7,19.6,11.2,27
		c7.4,7.4,17.1,11.1,26.8,11.2v0l0.1,0h0.1c0,0,0,0,0,0l0,0v0c9.7,0,19.5-3.7,27-11.2c7.2-7.2,11.2-16.8,11.2-27
		c0-10.2-4-19.8-11.2-27C205.4,230.3,195.6,226.5,185.8,226.5z M185.8,278.7c-3.6,0-7.2-1.4-9.9-4.1c-2.7-2.7-4.1-6.3-4.1-9.9
		c0-3.6,1.4-7.2,4.1-9.9c2.7-2.7,6.3-4.1,9.9-4.1c3.6,0,7.2,1.4,9.9,4.1c2.7,2.7,4.1,6.1,4.1,9.9c0,3.8-1.4,7.2-4.1,9.9
		C193,277.3,189.4,278.7,185.8,278.7z M185.8,302.8L185.8,302.8L185.8,302.8L185.8,302.8z"/>
	<path class="st1" d="M335.8,237.7c-7.4-7.4-17.3-11.2-27-11.2c-9.8,0-19.5,3.7-27,11.2l0,0c0,0,0,0,0,0s0,0,0,0l0,0
		c-7.4,7.4-11.2,17.2-11.2,27c0,9.8,3.7,19.6,11.2,27c7.4,7.4,17.2,11.2,27,11.2c9.8,0,19.6-3.7,27-11.2c7.4-7.4,11.2-17.2,11.2-27
		C347,254.9,343.2,245.1,335.8,237.7z M322.8,264.7c0,3.6-1.4,7.2-4.1,9.9c-2.7,2.7-6.3,4.1-9.9,4.1c-3.6,0-7.2-1.4-9.9-4.1
		c-2.7-2.7-4.1-6.3-4.1-9.9c0-3.6,1.4-7.2,4.1-9.9c2.7-2.7,6.3-4.1,9.9-4.1c3.6,0,7.2,1.4,9.9,4.1
		C321.4,257.5,322.8,261.1,322.8,264.7z"/>
</g>
<g>
	<path class="st1" d="M500.7,11.3C493.5,4,483.7,0,473.4,0l-0.1,0c-10.3,0-20.1,4.1-27.4,11.4c-0.8,0.8-1.6,1.7-2.6,2.7
		c-2.8,3.1-6.1,7.1-8.2,9.6c-1.9,2.3-2.9,5.2-2.9,8c0,1.8,0.4,3.6,1.1,5.3c0.8,1.7,1.9,3.2,3.4,4.4c2.3,1.9,5.2,2.9,8,2.9
		c1.8,0,3.6-0.4,5.3-1.1c1.7-0.8,3.2-1.9,4.4-3.4c2.1-2.6,4.1-4.8,5.7-6.7c0.8-0.9,1.5-1.7,2.1-2.4c0.6-0.7,1.1-1.2,1.4-1.5l0,0l0,0
		c2.6-2.6,6-4,9.7-4.1h0.1c3.6,0,6.9,1.4,9.5,3.9c2.5,2.5,3.9,5.9,3.9,9.5l0,0.1c0,3.7-1.4,7.1-4.1,9.7c-0.6,0.6-1.8,1.7-3.4,3
		c-4.3,3.6-11.6,9.2-21.1,15.9c-4.6-6.5-10.6-12.1-17.5-16.1c-8.3-4.9-18-7.7-28.3-7.7H293.2c-17.3,0-33.6,6.8-45.8,19L8.8,301l0,0
		C3.1,306.6,0,314.2,0,322.2c0,8,3.1,15.6,8.8,21.2l0,0l159.9,159.9l0,0c5.8,5.8,13.5,8.8,21.2,8.8c7.7,0,15.4-2.9,21.2-8.8
		l238.6-238.6c12.2-12.2,19-28.5,19-45.8V99.5c0-2.8-0.2-5.6-0.6-8.3c7.7-5.3,14.4-10.3,19.8-14.4c3-2.3,5.6-4.3,7.7-6.1
		c2.1-1.8,3.8-3.3,5.1-4.6C507.9,58.8,512,49,512,38.7v0l0-0.2C512,28.3,508,18.5,500.7,11.3z M443.4,218.9c0,10.6-4.1,20.5-11.6,28
		L193.2,485.5l0,0c-0.9,0.9-2.2,1.4-3.4,1.4c-1.3,0-2.5-0.5-3.4-1.4l-0.1-0.1L26.6,325.6c-0.9-0.9-1.4-2.1-1.4-3.4
		c0-1.3,0.5-2.5,1.4-3.4l0,0L265.2,80.2c7.5-7.5,17.4-11.6,28-11.6h119.4c5.9,0,11.3,1.6,16,4.5c3.5,2.1,6.6,5,9,8.3
		c-7.8,5.1-16.2,10.4-25.1,15.6c-7.3-6.7-16.7-10.1-26-10c-9.9,0-19.8,3.8-27.3,11.3c-7.5,7.5-11.3,17.5-11.3,27.3
		c0,9.9,3.8,19.8,11.3,27.3c7.5,7.5,17.5,11.3,27.3,11.3c9.9,0,19.8-3.8,27.3-11.3c7.5-7.5,11.3-17.5,11.3-27.3
		c0-2.2-0.2-4.4-0.6-6.5c6.5-3.8,12.9-7.7,18.9-11.6V218.9z M384.9,112.3c7.4-1,14.2,4.3,15.2,11.7c1,7.4-4.3,14.2-11.7,15.2
		c-4.3,0.6-8.4-1-11.2-3.8c-0.1-0.1-0.2-0.2-0.3-0.3c-2.6-2.6-3.9-6.1-3.9-9.6c0-3.5,1.3-6.9,3.9-9.6c2.3-2.3,5.2-3.6,8.2-3.9
		c-0.1,0.1-0.3,0.2-0.4,0.2C384.7,112.3,384.8,112.3,384.9,112.3z"/>
	<polygon class="st1" points="211,503.2 211,503.2 211,503.2 	"/>
</g>
</svg>
