<?xml version="1.0" encoding="utf-8"?>
<!-- Generator: Adobe Illustrator 21.1.0, SVG Export Plug-In . SVG Version: 6.00 Build 0)  -->
<svg version="1.1" id="Capa_1" xmlns="http://www.w3.org/2000/svg" xmlns:xlink="http://www.w3.org/1999/xlink" x="0px" y="0px"
	 viewBox="0 0 512 512" style="enable-background:new 0 0 512 512;" xml:space="preserve">
<style type="text/css">
	.st0{fill:#D1EEFF;}
	.st1{fill:#F46B27;}
	.st2{fill:#DBDBDB;}
	.st3{fill:#6ED6FF;}
	.st4{fill:#1AA8FF;}
</style>
<g>
	<polyline class="st0" points="452.3,388.4 503.5,388.4 503.5,294.5 426.7,175.1 332.8,175.1 332.8,388.4 366.9,388.4 	"/>
	<polyline class="st0" points="76.8,388.4 8.5,388.4 8.5,115.3 332.8,115.3 332.8,388.4 162.1,388.4 	"/>
</g>
<g>
	<rect x="8.5" y="345.7" class="st1" width="51.2" height="17.1"/>
	<rect x="179.2" y="345.7" class="st1" width="153.6" height="17.1"/>
</g>
<rect x="469.3" y="345.7" class="st2" width="34.1" height="17.1"/>
<rect x="34.1" y="140.9" class="st1" width="298.7" height="17.1"/>
<g>
	<circle class="st3" cx="119.5" cy="388.4" r="42.7"/>
	<circle class="st3" cx="409.6" cy="388.4" r="42.7"/>
</g>
<polygon class="st3" points="448.6,209.2 366.9,209.2 366.9,286 498,286 "/>
<path class="st4" d="M433.8,170.5c-1.6-2.4-4.3-3.9-7.2-3.9h-85.3v-51.2c0-4.7-3.8-8.5-8.5-8.5H8.5c-4.7,0-8.5,3.8-8.5,8.5v273.1
	c0,4.7,3.8,8.5,8.5,8.5H69c4.9,27.9,31.4,46.5,59.3,41.6c21.2-3.7,37.9-20.4,41.6-41.6h189.3c4.9,27.9,31.4,46.5,59.3,41.6
	c21.2-3.7,37.9-20.4,41.6-41.6h43.4c4.7,0,8.5-3.8,8.5-8.5v-93.9c0-1.6-0.5-3.2-1.4-4.6L433.8,170.5z M443.7,217.7l38.7,59.7H375.5
	v-59.7H443.7L443.7,217.7z M119.5,422.5c-18.8,0-34.1-15.3-34.1-34.1s15.3-34.1,34.1-34.1s34.1,15.3,34.1,34.1
	S138.3,422.5,119.5,422.5z M119.5,337.2c-25,0-46.3,18-50.4,42.7h-52v-17.1h42.7v-17.1H17.1V123.9h307.2v17.1H34.1V158h290.1v187.7
	H179.2v17.1h145.1v17.1H169.9C165.7,355.3,144.4,337.2,119.5,337.2z M409.6,422.5c-18.9,0-34.1-15.3-34.1-34.1s15.3-34.1,34.1-34.1
	s34.1,15.3,34.1,34.1S428.5,422.5,409.6,422.5z M460,379.9c-4.9-27.9-31.4-46.5-59.3-41.6c-21.2,3.7-37.9,20.4-41.6,41.6h-17.8
	V183.6H422l11,17.1h-66c-4.7,0-8.5,3.8-8.5,8.5V286c0,4.7,3.8,8.5,8.5,8.5h126.4l1.6,2.5v48.7h-25.6v17.1h25.6v17.1L460,379.9
	L460,379.9z"/>
<path class="st4" d="M119.5,379.9L119.5,379.9c4.7,0,8.5,3.8,8.5,8.5v0c0,4.7-3.8,8.5-8.5,8.5h0c-4.7,0-8.5-3.8-8.5-8.5v0
	C110.9,383.7,114.8,379.9,119.5,379.9z"/>
<path class="st4" d="M409.6,379.9L409.6,379.9c4.7,0,8.5,3.8,8.5,8.5v0c0,4.7-3.8,8.5-8.5,8.5h0c-4.7,0-8.5-3.8-8.5-8.5v0
	C401.1,383.7,404.9,379.9,409.6,379.9z"/>
<path class="st4" d="M42.7,72.7h102.4c4.7,0,8.5,3.8,8.5,8.5v0c0,4.7-3.8,8.5-8.5,8.5H42.7c-4.7,0-8.5-3.8-8.5-8.5v0
	C34.1,76.5,38,72.7,42.7,72.7z"/>
<path class="st4" d="M8.5,72.7L8.5,72.7c4.7,0,8.5,3.8,8.5,8.5v0c0,4.7-3.8,8.5-8.5,8.5h0c-4.7,0-8.5-3.8-8.5-8.5v0
	C0,76.5,3.8,72.7,8.5,72.7z"/>
</svg>
