<?xml version="1.0" encoding="iso-8859-1"?>
<!-- Generator: Adobe Illustrator 19.0.0, SVG Export Plug-In . SVG Version: 6.00 Build 0)  -->
<svg version="1.1" id="Capa_1" xmlns="http://www.w3.org/2000/svg" xmlns:xlink="http://www.w3.org/1999/xlink" x="0px" y="0px"
	 viewBox="0 0 512 512" style="enable-background:new 0 0 512 512;" xml:space="preserve">
<rect x="24.381" y="316.952" style="fill:#D1EEFF;" width="463.238" height="73.143"/>
<path style="fill:#1AA8FF;" d="M475.429,12.19H36.571C16.372,12.19,0,28.562,0,48.762v329.143c0,20.2,16.372,36.571,36.571,36.571
	h121.905v60.952h-36.571c-6.729,0-12.19,5.461-12.19,12.19s5.461,12.19,12.19,12.19h268.19c6.729,0,12.19-5.461,12.19-12.19
	s-5.461-12.19-12.19-12.19h-36.571v-60.952h121.905c20.2,0,36.571-16.372,36.571-36.571V48.762
	C512,28.562,495.628,12.19,475.429,12.19z M36.571,36.571h438.857c6.729,0,12.19,5.461,12.19,12.19v256H24.381v-256
	C24.381,42.033,29.842,36.571,36.571,36.571z M329.143,475.429H182.857v-60.952h146.286V475.429z M475.429,390.095H36.571
	c-6.729,0-12.19-5.461-12.19-12.19v-48.762h463.238v48.762C487.619,384.634,482.158,390.095,475.429,390.095z"/>
<polygon style="fill:#D1EEFF;" points="219.429,231.619 182.857,109.714 304.762,146.286 "/>
<path style="fill:#1AA8FF;" d="M313.539,223.086l-33.158-34.621l33.524-33.524c4.949-4.571,5.242-12.288,0.671-17.225
	c-1.682-1.816-3.864-3.072-6.278-3.621L186.392,97.524c-6.29-2.389-13.336,0.768-15.726,7.07c-1.061,2.792-1.061,5.876,0,8.655
	l36.571,121.905c1.902,6.461,8.692,10.142,15.141,8.241c1.975-0.585,3.767-1.658,5.218-3.121l34.621-34.621l33.402,34.377
	c4.681,4.852,12.398,4.986,17.25,0.305s4.986-12.398,0.305-17.25H313.539z M225.28,208.579l-24.381-80.701l80.701,24.381
	L225.28,208.579z"/>
<g>
</g>
<g>
</g>
<g>
</g>
<g>
</g>
<g>
</g>
<g>
</g>
<g>
</g>
<g>
</g>
<g>
</g>
<g>
</g>
<g>
</g>
<g>
</g>
<g>
</g>
<g>
</g>
<g>
</g>
</svg>
